<?xml version="1.0" encoding="UTF-8"?>
<svg xmlns="http://www.w3.org/2000/svg" viewBox="0 0 167.42 196.24">
  <defs>
    <style>
      .cls-1 {
        fill: #14a8b4;
      }

      .cls-2 {
        opacity: .5;
      }

      .cls-2, .cls-3 {
        fill: #fff;
      }

      .cls-4 {
        fill: #105465;
      }

      .cls-5 {
        fill: #108292;
      }

      .cls-6 {
        fill: #0f7588;
      }

      .cls-7 {
        fill: #199eae;
      }

      .cls-8 {
        fill: #54b7c5;
      }

      .cls-9 {
        fill: #49a1ad;
      }
    </style>
  </defs>
  <g>
    <polygon class="cls-6" points="122.16 19.29 122.16 19.32 122.18 19.3 122.16 19.29"/>
    <polygon class="cls-5" points="167.04 146.75 167.04 146.85 84.11 97.97 83.66 98.23 83.69 98.25 83.69 196.24 167.31 146.91 167.04 146.75"/>
    <polygon class="cls-4" points="83.66 98.23 83.42 98.09 41.17 122.63 .01 146.91 83.64 196.24 83.64 98.25 83.66 98.23"/>
    <polygon class="cls-6" points="83.69 97.5 83.69 97.43 83.64 97.46 83.64 97.47 83.69 97.5"/>
    <polygon class="cls-6" points="83.99 97.76 83.87 97.83 84.11 97.97 84.23 97.9 83.99 97.76"/>
    <polygon class="cls-6" points=".21 49.16 0 146.91 84.13 97.73 .21 49.16"/>
    <polygon class="cls-1" points="167.21 49.16 167.42 146.91 83.29 97.73 167.21 49.16"/>
    <polygon class="cls-6" points="83.87 97.83 83.54 97.64 83.09 97.9 83.42 98.09 83.87 97.83"/>
    <polygon class="cls-6" points="83.66 97.56 83.64 97.55 83.64 97.47 83.63 97.46 83.43 97.58 83.54 97.64 83.66 97.56"/>
    <polygon class="cls-6" points="83.66 97.56 83.99 97.76 84.06 97.72 83.69 97.5 83.69 97.55 83.66 97.56"/>
    <polygon class="cls-3" points="83.71 128.53 108.87 113.8 108.87 143.27 134.54 128.62 134.54 67.86 83.71 97.67 83.69 97.67 32.86 67.86 32.86 128.62 58.54 143.27 58.54 113.8 83.69 128.53 83.71 128.53"/>
    <polygon class="cls-8" points="167.31 49.33 83.69 0 83.69 97.87 167.31 49.33"/>
    <polygon class="cls-7" points="83.63 97.91 83.64 97.9 83.64 0 .01 49.33 83.63 97.91"/>
    <polygon class="cls-3" points="83.9 69.15 83.9 69.15 83.9 31.85 52.05 50.65 83.9 69.15"/>
    <polygon class="cls-2" points="84.51 69.15 84.5 69.15 84.5 31.85 116.36 50.65 84.51 69.15"/>
  </g>
</svg>
